<svg xmlns="http://www.w3.org/2000/svg" height="612" width="960.0" font-size="16" font-family="sans-serif" stroke-width="2">
<g transform="translate(10.0 0)">
<text fill="hsl(0, 100%, 40%)" y="22">Decode.Arrays.Hermes 442  ms</text>
<g>
<title>442  ms ± 8.2 ms</title>
<rect y="28" rx="5" height="22" width="108.638607054115" fill="hsl(0, 100%, 80%)" stroke="hsl(0, 100%, 55%)" />
<g stroke="hsl(0, 100%, 40%)"><line x1="106.62436681132893" x2="110.65284729690107" y1="39" y2="39" />
<line x1="106.62436681132893" x2="106.62436681132893" y1="33" y2="45" />
<line x1="110.65284729690107" x2="110.65284729690107" y1="33" y2="45" />
</g>
</g>
<g fill="hsl(32, 100%, 40%)">
<text y="77">Decode.Arrays.Aeson</text>
<text y="77" x="886.5066272272342" text-anchor="end">3.611 s</text>
</g>
<g>
<title>3.611 s ± 218 ms</title>
<rect y="83" rx="5" height="22" width="886.5066272272342" fill="hsl(32, 100%, 80%)" stroke="hsl(32, 100%, 55%)" />
<g stroke="hsl(32, 100%, 40%)"><line x1="833.0132544544683" x2="940.0" y1="94" y2="94" />
<line x1="833.0132544544683" x2="833.0132544544683" y1="88" y2="100" />
<line x1="940.0" x2="940.0" y1="88" y2="100" />
</g>
</g>
<text fill="hsl(65, 100%, 40%)" y="132">Decode.Persons.Hermes 85.5 ms</text>
<g>
<title>85.5 ms ± 8.4 ms</title>
<rect y="138" rx="5" height="22" width="20.994789387819804" fill="hsl(65, 100%, 80%)" stroke="hsl(65, 100%, 55%)" />
<g stroke="hsl(65, 100%, 40%)"><line x1="18.93080772948542" x2="23.058771046154188" y1="149" y2="149" />
<line x1="18.93080772948542" x2="18.93080772948542" y1="143" y2="155" />
<line x1="23.058771046154188" x2="23.058771046154188" y1="143" y2="155" />
</g>
</g>
<text fill="hsl(98, 100%, 40%)" y="187">Decode.Persons.Aeson 248  ms</text>
<g>
<title>248  ms ± 2.9 ms</title>
<rect y="193" rx="5" height="22" width="60.85818652767326" fill="hsl(98, 100%, 80%)" stroke="hsl(98, 100%, 55%)" />
<g stroke="hsl(98, 100%, 40%)"><line x1="60.15470642776016" x2="61.56166662758636" y1="204" y2="204" />
<line x1="60.15470642776016" x2="60.15470642776016" y1="198" y2="210" />
<line x1="61.56166662758636" x2="61.56166662758636" y1="198" y2="210" />
</g>
</g>
<text fill="hsl(130, 100%, 40%)" y="242">Decode.Partial Twitter.Hermes 370  μs</text>
<g>
<title>370  μs ±  36 μs</title>
<rect y="248" rx="5" height="22" width="0.09088062570408571" fill="hsl(130, 100%, 80%)" stroke="hsl(130, 100%, 55%)" />
<g stroke="hsl(130, 100%, 40%)"><line x1="0.08209770476551213" x2="0.09966354664265929" y1="259" y2="259" />
<line x1="0.08209770476551213" x2="0.08209770476551213" y1="253" y2="265" />
<line x1="0.09966354664265929" x2="0.09966354664265929" y1="253" y2="265" />
</g>
</g>
<text fill="hsl(163, 100%, 40%)" y="297">Decode.Partial Twitter.JsonStream 3.34 ms</text>
<g>
<title>3.34 ms ± 219 μs</title>
<rect y="303" rx="5" height="22" width="0.8192093838913717" fill="hsl(163, 100%, 80%)" stroke="hsl(163, 100%, 55%)" />
<g stroke="hsl(163, 100%, 40%)"><line x1="0.7653810004074217" x2="0.8730377673753216" y1="314" y2="314" />
<line x1="0.7653810004074217" x2="0.7653810004074217" y1="308" y2="320" />
<line x1="0.8730377673753216" x2="0.8730377673753216" y1="308" y2="320" />
</g>
</g>
<text fill="hsl(196, 100%, 40%)" y="352">Decode.Partial Twitter.Aeson 8.49 ms</text>
<g>
<title>8.49 ms ± 431 μs</title>
<rect y="358" rx="5" height="22" width="2.08530451329635" fill="hsl(196, 100%, 80%)" stroke="hsl(196, 100%, 55%)" />
<g stroke="hsl(196, 100%, 40%)"><line x1="1.979475385566913" x2="2.1911336410257873" y1="369" y2="369" />
<line x1="1.979475385566913" x2="1.979475385566913" y1="363" y2="375" />
<line x1="2.1911336410257873" x2="2.1911336410257873" y1="363" y2="375" />
</g>
</g>
<text fill="hsl(229, 100%, 40%)" y="407">Decode.Persons (Aeson Value).Hermes 208  ms</text>
<g>
<title>208  ms ± 2.6 ms</title>
<rect y="413" rx="5" height="22" width="50.964381752646005" fill="hsl(229, 100%, 80%)" stroke="hsl(229, 100%, 55%)" />
<g stroke="hsl(229, 100%, 40%)"><line x1="50.3153270337023" x2="51.61343647158971" y1="424" y2="424" />
<line x1="50.3153270337023" x2="50.3153270337023" y1="418" y2="430" />
<line x1="51.61343647158971" x2="51.61343647158971" y1="418" y2="430" />
</g>
</g>
<text fill="hsl(261, 100%, 40%)" y="462">Decode.Persons (Aeson Value).Aeson 219  ms</text>
<g>
<title>219  ms ±  21 ms</title>
<rect y="468" rx="5" height="22" width="53.76677945705891" fill="hsl(261, 100%, 80%)" stroke="hsl(261, 100%, 55%)" />
<g stroke="hsl(261, 100%, 40%)"><line x1="48.507330621691395" x2="59.026228292426424" y1="479" y2="479" />
<line x1="48.507330621691395" x2="48.507330621691395" y1="473" y2="485" />
<line x1="59.026228292426424" x2="59.026228292426424" y1="473" y2="485" />
</g>
</g>
<text fill="hsl(294, 100%, 40%)" y="517">Decode.Twitter (Aeson Value).Hermes 8.05 ms</text>
<g>
<title>8.05 ms ± 458 μs</title>
<rect y="523" rx="5" height="22" width="1.9768382830482032" fill="hsl(294, 100%, 80%)" stroke="hsl(294, 100%, 55%)" />
<g stroke="hsl(294, 100%, 40%)"><line x1="1.8644357315266213" x2="2.089240834569785" y1="534" y2="534" />
<line x1="1.8644357315266213" x2="1.8644357315266213" y1="528" y2="540" />
<line x1="2.089240834569785" x2="2.089240834569785" y1="528" y2="540" />
</g>
</g>
<text fill="hsl(327, 100%, 40%)" y="572">Decode.Twitter (Aeson Value).Aeson 9.25 ms</text>
<g>
<title>9.25 ms ± 769 μs</title>
<rect y="578" rx="5" height="22" width="2.2712741589578362" fill="hsl(327, 100%, 80%)" stroke="hsl(327, 100%, 55%)" />
<g stroke="hsl(327, 100%, 40%)"><line x1="2.082559572874049" x2="2.4599887450416236" y1="589" y2="589" />
<line x1="2.082559572874049" x2="2.082559572874049" y1="583" y2="595" />
<line x1="2.4599887450416236" x2="2.4599887450416236" y1="583" y2="595" />
</g>
</g>
</g>
</svg>
